<svg width="83" height="29" viewBox="0 0 83 29" fill="none" xmlns="http://www.w3.org/2000/svg">
<path d="M8.48864 9.90909V12.6364H0.409091V9.90909H8.48864ZM2.25852 23V8.96307C2.25852 8.0142 2.44318 7.22727 2.8125 6.60227C3.1875 5.97727 3.69886 5.50852 4.34659 5.19602C4.99432 4.88352 5.73011 4.72727 6.55398 4.72727C7.1108 4.72727 7.61932 4.76989 8.07955 4.85511C8.54545 4.94034 8.89205 5.01705 9.11932 5.08523L8.47159 7.8125C8.32955 7.76705 8.15341 7.72443 7.94318 7.68466C7.73864 7.64489 7.52841 7.625 7.3125 7.625C6.77841 7.625 6.40625 7.75 6.19602 8C5.9858 8.24432 5.88068 8.58807 5.88068 9.03125V23H2.25852ZM13.9709 23.2472C13.1357 23.2472 12.3913 23.1023 11.7379 22.8125C11.0845 22.517 10.5675 22.0824 10.1868 21.5085C9.81179 20.929 9.62429 20.2074 9.62429 19.3438C9.62429 18.6165 9.75781 18.0057 10.0249 17.5114C10.2919 17.017 10.6555 16.6193 11.1158 16.3182C11.576 16.017 12.0987 15.7898 12.6839 15.6364C13.2749 15.483 13.8942 15.375 14.5419 15.3125C15.3033 15.233 15.9169 15.1591 16.3828 15.0909C16.8487 15.017 17.1868 14.9091 17.397 14.767C17.6072 14.625 17.7124 14.4148 17.7124 14.1364V14.0852C17.7124 13.5455 17.5419 13.1278 17.201 12.8324C16.8658 12.5369 16.3885 12.3892 15.7692 12.3892C15.1158 12.3892 14.5959 12.5341 14.2095 12.8239C13.8232 13.108 13.5675 13.4659 13.4425 13.8977L10.0845 13.625C10.255 12.8295 10.5902 12.142 11.0902 11.5625C11.5902 10.9773 12.2351 10.5284 13.0249 10.2159C13.8203 9.89773 14.7408 9.73864 15.7862 9.73864C16.5135 9.73864 17.2095 9.82386 17.8743 9.99432C18.5447 10.1648 19.1385 10.429 19.6555 10.7869C20.1783 11.1449 20.5902 11.6051 20.8913 12.1676C21.1925 12.7244 21.343 13.392 21.343 14.1705V23H17.8999V21.1847H17.7976C17.5874 21.5938 17.3061 21.9545 16.9538 22.267C16.6016 22.5739 16.1783 22.8153 15.6839 22.9915C15.1896 23.1619 14.6186 23.2472 13.9709 23.2472ZM15.0107 20.7415C15.5447 20.7415 16.0163 20.6364 16.4254 20.4261C16.8345 20.2102 17.1555 19.9205 17.3885 19.5568C17.6214 19.1932 17.7379 18.7812 17.7379 18.321V16.9318C17.6243 17.0057 17.468 17.0739 17.2692 17.1364C17.076 17.1932 16.8572 17.2472 16.6129 17.2983C16.3686 17.3437 16.1243 17.3864 15.88 17.4261C15.6357 17.4602 15.4141 17.4915 15.2152 17.5199C14.7891 17.5824 14.4169 17.6818 14.0987 17.8182C13.7805 17.9545 13.5334 18.1392 13.3572 18.3722C13.1811 18.5994 13.093 18.8835 13.093 19.2244C13.093 19.7188 13.272 20.0966 13.63 20.358C13.9936 20.6136 14.4538 20.7415 15.0107 20.7415ZM24.228 23V5.54545H27.8587V12.108H27.9695C28.1286 11.7557 28.3587 11.3977 28.6598 11.0341C28.9666 10.6648 29.3643 10.358 29.853 10.1136C30.3473 9.86364 30.9609 9.73864 31.6939 9.73864C32.6484 9.73864 33.5291 9.98864 34.3359 10.4886C35.1428 10.983 35.7876 11.7301 36.2706 12.7301C36.7536 13.7244 36.995 14.9716 36.995 16.4716C36.995 17.9318 36.7592 19.1648 36.2876 20.1705C35.8217 21.1705 35.1854 21.929 34.3786 22.446C33.5774 22.9574 32.6797 23.2131 31.6854 23.2131C30.9808 23.2131 30.3814 23.0966 29.8871 22.8636C29.3984 22.6307 28.9979 22.3381 28.6854 21.9858C28.3729 21.6278 28.1342 21.267 27.9695 20.9034H27.8075V23H24.228ZM27.782 16.4545C27.782 17.233 27.8899 17.9119 28.1058 18.4915C28.3217 19.071 28.6342 19.5227 29.0433 19.8466C29.4524 20.1648 29.9496 20.3239 30.5348 20.3239C31.1257 20.3239 31.6257 20.1619 32.0348 19.8381C32.4439 19.5085 32.7536 19.054 32.9638 18.4744C33.1797 17.8892 33.2876 17.2159 33.2876 16.4545C33.2876 15.6989 33.1825 15.0341 32.9723 14.4602C32.7621 13.8864 32.4524 13.4375 32.0433 13.1136C31.6342 12.7898 31.1314 12.6278 30.5348 12.6278C29.9439 12.6278 29.4439 12.7841 29.0348 13.0966C28.6314 13.4091 28.3217 13.8523 28.1058 14.4261C27.8899 15 27.782 15.6761 27.782 16.4545ZM39.4176 23V9.90909H42.9375V12.1932H43.0739C43.3125 11.3807 43.7131 10.767 44.2756 10.3523C44.8381 9.93182 45.4858 9.72159 46.2188 9.72159C46.4006 9.72159 46.5966 9.73295 46.8068 9.75568C47.017 9.77841 47.2017 9.80966 47.3608 9.84943V13.071C47.1903 13.0199 46.9545 12.9744 46.6534 12.9347C46.3523 12.8949 46.0767 12.875 45.8267 12.875C45.2926 12.875 44.8153 12.9915 44.3949 13.2244C43.9801 13.4517 43.6506 13.7699 43.4062 14.179C43.1676 14.5881 43.0483 15.0597 43.0483 15.5938V23H39.4176ZM49.2379 23V9.90909H52.8686V23H49.2379ZM51.0618 8.22159C50.522 8.22159 50.0589 8.04261 49.6726 7.68466C49.2919 7.32102 49.1016 6.88636 49.1016 6.38068C49.1016 5.88068 49.2919 5.4517 49.6726 5.09375C50.0589 4.73011 50.522 4.54829 51.0618 4.54829C51.6016 4.54829 52.0618 4.73011 52.4425 5.09375C52.8288 5.4517 53.022 5.88068 53.022 6.38068C53.022 6.88636 52.8288 7.32102 52.4425 7.68466C52.0618 8.04261 51.6016 8.22159 51.0618 8.22159ZM60.6009 23.2131C59.6065 23.2131 58.706 22.9574 57.8991 22.446C57.098 21.929 56.4616 21.1705 55.9901 20.1705C55.5241 19.1648 55.2912 17.9318 55.2912 16.4716C55.2912 14.9716 55.5327 13.7244 56.0156 12.7301C56.4986 11.7301 57.1406 10.983 57.9418 10.4886C58.7486 9.98864 59.6321 9.73864 60.5923 9.73864C61.3253 9.73864 61.9361 9.86364 62.4247 10.1136C62.919 10.358 63.3168 10.6648 63.6179 11.0341C63.9247 11.3977 64.1577 11.7557 64.3168 12.108H64.4276V5.54545H68.0497V23H64.4702V20.9034H64.3168C64.1463 21.267 63.9048 21.6278 63.5923 21.9858C63.2855 22.3381 62.8849 22.6307 62.3906 22.8636C61.902 23.0966 61.3054 23.2131 60.6009 23.2131ZM61.7514 20.3239C62.3366 20.3239 62.831 20.1648 63.2344 19.8466C63.6435 19.5227 63.956 19.071 64.1719 18.4915C64.3935 17.9119 64.5043 17.233 64.5043 16.4545C64.5043 15.6761 64.3963 15 64.1804 14.4261C63.9645 13.8523 63.652 13.4091 63.2429 13.0966C62.8338 12.7841 62.3366 12.6278 61.7514 12.6278C61.1548 12.6278 60.652 12.7898 60.2429 13.1136C59.8338 13.4375 59.5241 13.8864 59.3139 14.4602C59.1037 15.0341 58.9986 15.6989 58.9986 16.4545C58.9986 17.2159 59.1037 17.8892 59.3139 18.4744C59.5298 19.054 59.8395 19.5085 60.2429 19.8381C60.652 20.1619 61.1548 20.3239 61.7514 20.3239Z" fill="#151819"/>
<rect x="71.5" y="2" width="11" height="11" rx="5.5" stroke="#151819"/>
<path d="M74.6456 10.5V3.95455H77.1001C77.603 3.95455 78.0249 4.0419 78.3658 4.21662C78.7088 4.39133 78.9677 4.63636 79.1424 4.9517C79.3192 5.26491 79.4077 5.63033 79.4077 6.04794C79.4077 6.46768 79.3182 6.83203 79.1392 7.14098C78.9624 7.4478 78.7013 7.68537 78.3562 7.85369C78.011 8.01989 77.587 8.10298 77.0842 8.10298H75.3359V7.11861H76.9244C77.2184 7.11861 77.4592 7.07812 77.6467 6.99716C77.8342 6.91406 77.9727 6.79368 78.0621 6.63601C78.1538 6.47621 78.1996 6.28018 78.1996 6.04794C78.1996 5.8157 78.1538 5.61754 78.0621 5.45348C77.9705 5.28729 77.831 5.16158 77.6435 5.07635C77.456 4.98899 77.2141 4.94531 76.918 4.94531H75.8313V10.5H74.6456ZM78.027 7.53409L79.6474 10.5H78.3242L76.7326 7.53409H78.027Z" fill="#151819"/>
</svg>
