<svg width="49" height="23" viewBox="0 0 49 23" fill="none" xmlns="http://www.w3.org/2000/svg">
<path d="M8.07847 10.9001C8.10623 10.9556 8.15481 11.025 8.22422 11.1083C8.4463 11.3859 8.65451 11.6635 8.84884 11.9411C9.05705 12.2049 9.23055 12.4894 9.36936 12.7948C9.52204 13.0863 9.62615 13.4125 9.68167 13.7734C9.73719 14.1343 9.72331 14.5368 9.64003 14.981C9.52899 15.6334 9.31384 16.1678 8.99458 16.5842C8.68921 16.9867 8.31444 17.299 7.87026 17.5211C7.42608 17.7432 6.93333 17.8959 6.39198 17.9792C5.85064 18.0486 5.28848 18.0833 4.7055 18.0833C4.1364 18.0972 3.56036 18.0833 2.97737 18.0416C2.40827 18 1.87387 17.9722 1.37417 17.9584C1.29089 17.9584 1.20761 17.9584 1.12432 17.9584C1.05492 17.9584 0.985518 17.9445 0.916115 17.9167C0.832832 15.5154 0.812011 13.1349 0.853653 10.7752C0.895294 8.40161 0.895294 6.00722 0.853653 3.59201L0.874474 3.57119C1.42969 3.4185 2.01962 3.30052 2.64424 3.21723C3.26887 3.13395 3.88655 3.10619 4.49729 3.13395C5.10804 3.16171 5.69102 3.25194 6.24624 3.40462C6.81534 3.55731 7.31504 3.80716 7.74534 4.15417C8.17563 4.4873 8.51571 4.92454 8.76556 5.46588C9.01541 5.99334 9.14033 6.64573 9.14033 7.42303C9.14033 8.00602 9.03623 8.57512 8.82802 9.13034C8.63369 9.68556 8.39772 10.1991 8.12011 10.6711C8.06459 10.7682 8.05071 10.8446 8.07847 10.9001ZM5.76736 14.9393C5.96169 14.8561 6.12825 14.7311 6.26706 14.5646C6.41975 14.3564 6.48915 14.1065 6.47527 13.815C6.47527 13.5235 6.42669 13.2598 6.32952 13.0238C6.24624 12.8573 6.12131 12.7115 5.95475 12.5866C5.78818 12.4478 5.61468 12.3576 5.43423 12.3159C5.1705 12.2465 4.89983 12.2118 4.62222 12.2118C4.34461 12.1979 4.07394 12.1771 3.81021 12.1494C3.75468 12.3576 3.7061 12.5935 3.66446 12.8573C3.62282 13.121 3.59506 13.3917 3.58118 13.6693C3.58118 13.933 3.602 14.1898 3.64364 14.4396C3.68528 14.6895 3.76162 14.8977 3.87267 15.0643L3.91431 15.0851C4.10864 15.0851 4.30991 15.092 4.51811 15.1059C4.7402 15.1059 4.95535 15.099 5.16356 15.0851C5.38565 15.0573 5.58691 15.0087 5.76736 14.9393ZM5.78818 9.10952C5.98251 8.99847 6.1352 8.83885 6.24624 8.63064C6.3434 8.46407 6.42669 8.26975 6.49609 8.04766C6.56549 7.82557 6.54467 7.60348 6.43363 7.38139C6.32258 7.1593 6.17684 6.99274 5.99639 6.88169C5.82982 6.75677 5.6355 6.66655 5.41341 6.61102C5.1358 6.5555 4.83737 6.52774 4.51811 6.52774C4.21274 6.51386 3.95595 6.56244 3.74774 6.67349C3.7755 6.99274 3.76162 7.38139 3.7061 7.83945C3.66446 8.29751 3.7061 8.76945 3.83103 9.25526C4.03923 9.28303 4.26132 9.30385 4.49729 9.31773C4.73326 9.33161 4.96229 9.32467 5.18438 9.29691C5.40647 9.26915 5.60774 9.20668 5.78818 9.10952ZM13.691 3.7794C13.9269 3.79328 14.1629 3.78634 14.3989 3.75857V6.54856C14.3989 6.72901 14.3989 6.9164 14.3989 7.11072C14.4128 7.30505 14.4197 7.50632 14.4197 7.71453C14.85 7.70065 15.3011 7.67982 15.7731 7.65206C16.2589 7.6243 16.8557 7.5896 17.5636 7.54796C17.6608 7.659 17.7163 7.82557 17.7302 8.04766C17.7441 8.25587 17.7441 8.4849 17.7302 8.73474C17.7163 8.98459 17.6955 9.24138 17.6677 9.50511C17.6539 9.75496 17.6608 9.97011 17.6886 10.1506H14.4613C14.4613 10.9001 14.4613 11.6358 14.4613 12.3576C14.4613 13.0655 14.4683 13.7317 14.4822 14.3564C14.621 14.5507 14.8222 14.7034 15.086 14.8144C15.3497 14.9255 15.6342 15.0157 15.9396 15.0851C16.245 15.1406 16.5504 15.1753 16.8557 15.1892C17.175 15.2031 17.4526 15.2031 17.6886 15.1892C17.7163 15.3835 17.7441 15.5987 17.7719 15.8346C17.7996 16.0706 17.8204 16.3135 17.8343 16.5634C17.8482 16.8132 17.8413 17.0631 17.8135 17.3129C17.7996 17.5628 17.758 17.7918 17.6886 18C17.1333 18.0278 16.5573 18.0278 15.9604 18C15.3636 17.9584 14.8014 17.8751 14.274 17.7502C13.7465 17.6252 13.2746 17.4378 12.8581 17.188C12.4556 16.9381 12.1641 16.5981 11.9837 16.1678C11.8032 15.099 11.6991 14.0926 11.6714 13.1488C11.6436 12.191 11.6367 11.2055 11.6505 10.1922C11.4284 10.2061 11.1925 10.213 10.9426 10.213C10.7067 10.213 10.4429 10.213 10.1514 10.213L10.2139 7.67288C10.4915 7.68676 10.7483 7.6937 10.9843 7.6937C11.2341 7.6937 11.4701 7.6937 11.6922 7.6937C11.6922 7.38833 11.6852 7.06214 11.6714 6.71513C11.6575 6.35423 11.6505 5.99334 11.6505 5.63245C11.6505 5.27155 11.6505 4.92454 11.6505 4.59141C11.6644 4.25827 11.6852 3.95984 11.713 3.69611C11.8934 3.66835 12.0878 3.66141 12.296 3.67529C12.5181 3.68917 12.7471 3.70999 12.9831 3.73775C13.219 3.75163 13.455 3.76551 13.691 3.7794ZM21.5554 8.11012C21.5693 8.15176 21.5762 8.22117 21.5762 8.31833C21.6317 8.29057 21.7566 8.23505 21.951 8.15176C22.1592 8.06848 22.3605 7.99214 22.5548 7.92273C22.8185 7.83945 23.1169 7.77699 23.4501 7.73535C23.7832 7.67982 24.0955 7.64512 24.387 7.63124C24.6785 7.61736 24.9214 7.61736 25.1157 7.63124C25.3239 7.63124 25.428 7.63818 25.428 7.65206C25.428 8.124 25.4211 8.54042 25.4072 8.90131C25.4072 9.26221 25.4072 9.5884 25.4072 9.87989C25.4072 10.1575 25.4072 10.4143 25.4072 10.6503C25.4072 10.8862 25.4142 11.1083 25.428 11.3165L25.2407 11.2541C25.1713 11.2263 25.0949 11.2055 25.0116 11.1916C24.9422 11.1638 24.8728 11.1361 24.8034 11.1083C24.6369 11.0667 24.4634 11.032 24.2829 11.0042C24.1163 10.9765 24.0261 10.9626 24.0122 10.9626C23.6375 10.9209 23.2904 10.9001 22.9712 10.9001C22.6658 10.9001 22.3952 10.9487 22.1592 11.0459C21.9371 11.143 21.7636 11.2957 21.6387 11.5039C21.5137 11.7121 21.4582 12.0106 21.4721 12.3992C21.486 12.885 21.4999 13.3431 21.5137 13.7734C21.5276 14.2037 21.5346 14.6409 21.5346 15.0851C21.5346 15.5154 21.5346 15.9596 21.5346 16.4176C21.5484 16.8618 21.5554 17.3407 21.5554 17.8543V17.9375C21.3194 18.0069 21.1043 18.0486 20.9099 18.0625C20.7156 18.0763 20.5143 18.0763 20.3061 18.0625C20.0979 18.0625 19.8689 18.0555 19.619 18.0416C19.3831 18.0278 19.0985 18.0347 18.7654 18.0625C18.7654 16.3552 18.7446 14.6479 18.7029 12.9405C18.6752 11.2332 18.6891 9.46347 18.7446 7.63124C18.9111 7.64512 19.0499 7.659 19.161 7.67288C19.272 7.67288 19.3761 7.67288 19.4733 7.67288C19.5705 7.67288 19.6746 7.67288 19.7856 7.67288C19.8967 7.659 20.0355 7.64512 20.202 7.63124C20.2576 7.63124 20.3547 7.6243 20.4935 7.61042C20.6462 7.59654 20.7989 7.58266 20.9516 7.56878C21.1181 7.5549 21.2569 7.5549 21.368 7.56878C21.4929 7.56878 21.5554 7.58266 21.5554 7.61042C21.5554 7.72147 21.5554 7.80475 21.5554 7.86027C21.5554 7.91579 21.5554 7.96438 21.5554 8.00602C21.5554 8.03378 21.5554 8.06848 21.5554 8.11012ZM27.7842 7.52714C28.1035 7.54102 28.4852 7.54102 28.9294 7.52714H29.2833V7.5896C29.2694 9.26915 29.2347 10.9834 29.1792 12.7323C29.1376 14.4813 29.1653 16.1955 29.2625 17.8751C29.1931 17.9584 29.0196 18 28.742 18C28.4644 18.0139 28.159 18.0139 27.8259 18C27.5066 18 27.2012 17.9931 26.9097 17.9792C26.6182 17.9653 26.4239 17.9722 26.3268 18C26.3962 17.1255 26.4239 16.2372 26.41 15.3349C26.41 14.4327 26.3962 13.5374 26.3684 12.6491C26.3406 11.7607 26.3268 10.8862 26.3268 10.0256C26.3268 9.15116 26.3684 8.30445 26.4517 7.4855V7.46468C26.5072 7.4508 26.5974 7.4508 26.7224 7.46468C26.8612 7.47856 26.9653 7.4855 27.0347 7.4855C27.2151 7.49938 27.465 7.51326 27.7842 7.52714ZM26.3892 4.61223C26.3615 4.16805 26.3545 3.62671 26.3684 2.98821L29.2 3.05067C29.2 3.13395 29.2 3.28664 29.2 3.50872C29.2139 3.71693 29.2208 3.9529 29.2208 4.21663C29.2347 4.46648 29.2417 4.73021 29.2417 5.00782C29.2555 5.27155 29.2625 5.50752 29.2625 5.71573C29.207 5.79901 29.0751 5.85453 28.8669 5.8823C28.6726 5.91006 28.4366 5.92394 28.159 5.92394C27.8953 5.91006 27.6107 5.89618 27.3053 5.8823C27 5.85453 26.7154 5.84759 26.4517 5.86148C26.4517 5.45894 26.4309 5.04252 26.3892 4.61223ZM33.4481 21.3521C33.4481 21.5048 33.4412 21.72 33.4273 21.9976V22.2266C33.4273 22.2405 33.3301 22.2544 33.1358 22.2683C32.9554 22.296 32.7263 22.3099 32.4487 22.3099C32.185 22.3238 31.9004 22.3238 31.5951 22.3099C31.2897 22.3099 31.026 22.2891 30.8039 22.2474V20.8733C30.8039 19.7212 30.79 18.5691 30.7622 17.417C30.7345 16.2649 30.7067 15.1337 30.679 14.0232C30.6651 12.8989 30.6512 11.8023 30.6373 10.7335C30.6373 9.65086 30.6512 8.60982 30.679 7.61042C31.1093 7.61042 31.5812 7.60348 32.0948 7.5896C32.6083 7.56184 33.0733 7.57572 33.4898 7.63124C33.5036 7.659 33.5106 7.70759 33.5106 7.77699C33.5106 7.91579 33.5106 8.02684 33.5106 8.11012C33.5245 8.1934 33.5314 8.31139 33.5314 8.46407C33.5592 8.53348 33.5869 8.589 33.6147 8.63064C33.6563 8.6584 33.698 8.63064 33.7396 8.54736C33.9478 8.13094 34.2254 7.86721 34.5724 7.75617C34.9195 7.63124 35.2873 7.59654 35.6759 7.65206C36.4671 7.70759 37.0918 7.91579 37.5498 8.27669C38.0079 8.6237 38.3479 9.07482 38.57 9.63004C38.806 10.1714 38.9587 10.7821 39.0281 11.4623C39.0975 12.1424 39.1461 12.8295 39.1738 13.5235C39.1738 14.0093 39.1391 14.4813 39.0697 14.9393C39.0142 15.3974 38.9171 15.8208 38.7782 16.2094C38.6533 16.5842 38.4798 16.9104 38.2577 17.188C38.0495 17.4517 37.7927 17.6391 37.4874 17.7502C37.1126 17.889 36.6962 17.9722 36.2381 18C35.7939 18.0416 35.3706 18.0416 34.968 18C34.5655 17.9722 34.2254 17.9098 33.9478 17.8126C33.6702 17.7154 33.5175 17.6044 33.4898 17.4795C33.5036 18.1319 33.5106 18.6593 33.5106 19.0619C33.5106 19.4644 33.5106 19.7836 33.5106 20.0196C33.5106 20.2695 33.5036 20.4569 33.4898 20.5818C33.4898 20.7206 33.4828 20.8455 33.4689 20.9566C33.4689 21.0815 33.462 21.2133 33.4481 21.3521ZM36.0299 15.2517C36.3769 15.0018 36.5851 14.634 36.6545 14.1482C36.7239 13.9538 36.7656 13.7526 36.7794 13.5443C36.7933 13.3361 36.8003 13.1349 36.8003 12.9405C36.8003 12.5935 36.7586 12.2604 36.6753 11.9411C36.5921 11.608 36.4671 11.3165 36.3006 11.0667C36.134 10.8029 35.9327 10.5947 35.6968 10.4421C35.4608 10.2894 35.1971 10.213 34.9056 10.213C34.5447 10.213 34.2671 10.2894 34.0727 10.4421C33.8784 10.5947 33.7257 10.8029 33.6147 11.0667C33.5175 11.3304 33.4551 11.6497 33.4273 12.0244C33.4134 12.3992 33.4065 12.8017 33.4065 13.232C33.4065 13.7734 33.4134 14.2037 33.4273 14.5229C33.4551 14.8283 33.5106 15.0643 33.5939 15.2308C33.6772 15.3974 33.8021 15.5084 33.9686 15.564C34.1491 15.6056 34.3851 15.6264 34.6765 15.6264C35.2457 15.6264 35.6968 15.5015 36.0299 15.2517ZM43.5226 12.8364C43.2173 12.8226 42.9952 12.8017 42.8564 12.774V13.1488C42.8702 13.5652 42.8841 13.9052 42.898 14.169C42.9258 14.4327 43.016 14.6895 43.1687 14.9393C43.3352 15.2586 43.5712 15.4946 43.8766 15.6472C44.1819 15.7999 44.4804 15.8485 44.7719 15.793C45.0634 15.7375 45.3063 15.5709 45.5006 15.2933C45.7088 15.0018 45.799 14.5715 45.7713 14.0024C45.9101 14.0163 46.0975 14.0232 46.3334 14.0232C46.5694 14.0093 46.8123 13.9955 47.0622 13.9816C47.3259 13.9677 47.5757 13.9677 47.8117 13.9816C48.0477 13.9816 48.242 14.0024 48.3947 14.044C48.3669 14.4049 48.3392 14.7589 48.3114 15.1059C48.2836 15.4529 48.2489 15.7791 48.2073 16.0845C48.1657 16.376 48.1101 16.6328 48.0407 16.8549C47.9852 17.0631 47.9089 17.2088 47.8117 17.2921C47.5757 17.6252 47.2704 17.8612 46.8956 18C46.5208 18.1388 46.1113 18.2221 45.6672 18.2498C45.223 18.2776 44.7649 18.2776 44.293 18.2498C43.8349 18.2221 43.4116 18.2082 43.0229 18.2082C42.6343 18.1527 42.2734 18.0278 41.9402 17.8334C41.5655 17.5697 41.2532 17.2296 41.0033 16.8132C40.7535 16.3829 40.5522 15.9179 40.3995 15.4182C40.2468 14.9046 40.1427 14.3633 40.0872 13.7942C40.0317 13.2251 40.0178 12.656 40.0456 12.0869C40.0872 11.5733 40.1288 11.0806 40.1705 10.6086C40.226 10.1228 40.337 9.65086 40.5036 9.1928C40.6841 8.79027 40.9617 8.45019 41.3364 8.17258C41.7112 7.88109 42.1346 7.66594 42.6065 7.52714C43.0784 7.37445 43.5781 7.29117 44.1056 7.27729C44.6331 7.26341 45.1466 7.31893 45.6463 7.44386C46.2849 7.5549 46.7984 7.77699 47.1871 8.11012C47.5757 8.44325 47.8672 8.84579 48.0616 9.31773C48.2698 9.78967 48.3947 10.3102 48.4363 10.8793C48.478 11.4484 48.478 12.0244 48.4363 12.6074C48.3392 12.6352 48.1518 12.6629 47.8742 12.6907C47.6104 12.7185 47.2912 12.7462 46.9164 12.774C46.5555 12.8017 46.1669 12.8226 45.7504 12.8364C45.334 12.8503 44.9315 12.8573 44.5428 12.8573C44.1681 12.8573 43.828 12.8503 43.5226 12.8364ZM45.9587 10.1089C45.8199 9.85907 45.6255 9.67168 45.3757 9.54676C45.2646 9.47735 45.1536 9.42877 45.0425 9.40101C44.9315 9.35937 44.7996 9.33855 44.6469 9.33855C44.3138 9.33855 44.0431 9.37325 43.8349 9.44265C43.6267 9.51205 43.4602 9.60922 43.3352 9.73414C43.2103 9.85907 43.1131 10.0048 43.0437 10.1714C42.9882 10.3379 42.9466 10.5115 42.9188 10.6919C42.8911 10.8446 42.8772 10.9556 42.8772 11.025C42.8911 11.0806 42.9605 11.1222 43.0854 11.15C43.2103 11.1638 43.4046 11.1708 43.6684 11.1708C43.946 11.1569 44.3485 11.15 44.876 11.15C45.2369 11.15 45.5075 11.1569 45.688 11.1708C45.8684 11.1847 45.9934 11.1916 46.0628 11.1916C46.146 11.1777 46.1877 11.1569 46.1877 11.1291C46.1877 11.0875 46.1877 11.0112 46.1877 10.9001C46.1877 10.6225 46.1113 10.3588 45.9587 10.1089Z" fill="#3A3838"/>
</svg>
