<svg width="60" height="17" viewBox="0 0 60 17" fill="none" xmlns="http://www.w3.org/2000/svg">
<path d="M2.13205 16.1498C1.65456 16.061 1.31587 15.739 1.11599 15.1838C0.927219 14.6285 0.832832 13.9401 0.832832 13.1183C0.832832 13.0184 0.82728 12.7686 0.816175 12.3688C0.816175 11.969 0.810623 11.4749 0.799519 10.8864C0.799519 10.2867 0.793966 9.64266 0.782862 8.95418C0.782862 8.26571 0.77731 7.57723 0.766205 6.88876C0.755101 6.20028 0.743997 5.56733 0.732892 4.9899C0.721788 4.40137 0.710683 3.91832 0.699579 3.54077C0.688474 3.16322 0.67737 2.93558 0.666266 2.85785C0.832832 2.82454 1.08823 2.81899 1.43247 2.8412C1.78781 2.8523 2.15426 2.90782 2.53181 3.00776C2.92046 3.0966 3.25915 3.25206 3.54786 3.47415C3.83658 3.68513 4.00315 3.9794 4.04756 4.35695C4.06977 4.53462 4.08643 4.83999 4.09753 5.27306C4.10864 5.69503 4.11419 6.20028 4.11419 6.78882C4.12529 7.36625 4.13085 7.98254 4.13085 8.6377C4.13085 9.29287 4.13085 9.94247 4.13085 10.5865C4.13085 11.2195 4.13085 11.808 4.13085 12.3521C4.13085 12.8851 4.13085 13.3349 4.13085 13.7013C4.14195 14.0567 4.15306 14.2732 4.16416 14.3509C4.18637 14.5841 4.23079 14.7562 4.29741 14.8673C4.36404 14.9672 4.43622 15.0949 4.51395 15.2504C4.23634 15.5502 3.8921 15.7945 3.48124 15.9833C3.07037 16.1721 2.62064 16.2276 2.13205 16.1498ZM16.799 4.35695C16.8212 4.54572 16.8323 4.86775 16.8323 5.32303C16.8434 5.76721 16.849 6.30022 16.849 6.92207C16.849 7.54392 16.849 8.19908 16.849 8.88755C16.849 9.57603 16.8434 10.259 16.8323 10.9363C16.8323 11.6137 16.8268 12.23 16.8157 12.7852C16.8157 13.3404 16.8157 13.7957 16.8157 14.1511C16.8157 14.4953 16.8212 14.6896 16.8323 14.734C16.8545 14.8229 16.8379 14.9672 16.7823 15.1671C16.7268 15.3559 16.638 15.5391 16.5158 15.7168C16.3937 15.8833 16.2382 15.9833 16.0495 16.0166C15.8718 16.061 15.6219 16.061 15.2999 16.0166C14.989 15.9833 14.6725 15.9 14.3505 15.7667C14.0395 15.6224 13.7897 15.417 13.6009 15.1505C13.4899 14.995 13.3178 14.7729 13.0846 14.4842C12.8625 14.1844 12.6126 13.8623 12.335 13.5181C12.0685 13.1628 11.802 12.8241 11.5355 12.502C11.2801 12.1689 11.0636 11.8857 10.8859 11.6526C10.7082 11.4083 10.5972 11.2583 10.5528 11.2028C10.4528 11.0474 10.2863 10.8919 10.0531 10.7364C9.83097 10.5699 9.6533 10.5088 9.52005 10.5532C9.3868 10.5976 9.28686 10.7364 9.22023 10.9696C9.1536 11.1917 9.10919 11.4305 9.08698 11.6859C9.06477 11.8524 9.05366 12.1078 9.05366 12.4521C9.05366 12.7852 9.05366 13.1294 9.05366 13.4848C9.06477 13.8401 9.06477 14.1288 9.05366 14.3509C9.04256 14.7396 9.16471 15.1116 9.42011 15.4669C9.33127 15.5224 9.1536 15.6113 8.8871 15.7334C8.62059 15.8445 8.33743 15.9444 8.03761 16.0333C7.73779 16.1221 7.48239 16.161 7.2714 16.1498C6.91606 16.1276 6.59959 15.9444 6.32197 15.6002C6.05547 15.2559 5.91666 14.8284 5.90556 14.3176C5.90556 14.2177 5.90001 13.9401 5.8889 13.4848C5.8889 13.0184 5.88335 12.441 5.87225 11.7525C5.87225 11.064 5.87225 10.32 5.87225 9.52051C5.87225 8.72099 5.86669 7.93257 5.85559 7.15526C5.85559 6.36685 5.85004 5.65061 5.83893 5.00656C5.83893 4.3514 5.83893 3.82949 5.83893 3.44083C5.83893 3.05218 5.83893 2.85785 5.83893 2.85785C6.5163 2.83564 7.08818 2.88561 7.55457 3.00776C8.02095 3.12991 8.40961 3.352 8.72053 3.67403C8.85378 3.79618 9.04811 4.01271 9.30351 4.32364C9.55891 4.63456 9.83653 4.9899 10.1363 5.38966C10.4473 5.77832 10.7471 6.16697 11.0358 6.55563C11.3356 6.94428 11.5966 7.28852 11.8187 7.58834C12.0408 7.87705 12.1851 8.06583 12.2517 8.15466C12.4294 8.37675 12.6071 8.55442 12.7848 8.68768C12.9735 8.80982 13.129 8.84869 13.2511 8.80427C13.5176 8.71544 13.6509 8.34344 13.6509 7.68828L13.6176 2.85785C13.7397 2.83564 13.9507 2.83009 14.2505 2.8412C14.5615 2.8523 14.889 2.90227 15.2333 2.99111C15.6108 3.07994 15.9551 3.22985 16.266 3.44083C16.5769 3.65182 16.7546 3.95719 16.799 4.35695ZM26.2635 2.69129C27.0297 2.79123 27.6182 3.01331 28.0291 3.35755C28.4511 3.70179 28.7176 4.1071 28.8286 4.57349C28.9508 5.03987 28.9285 5.51736 28.762 6.00596C28.7065 6.19473 28.5899 6.52231 28.4122 6.9887C28.2456 7.44398 28.0457 7.97699 27.8126 8.58774C27.5905 9.18737 27.3573 9.80367 27.113 10.4366C26.8687 11.0696 26.641 11.6637 26.4301 12.2189C26.2302 12.763 26.0636 13.2072 25.9304 13.5514C25.7971 13.8845 25.7305 14.0567 25.7305 14.0678C25.4307 14.7673 25.1641 15.2559 24.931 15.5336C24.6978 15.8112 24.4201 15.95 24.0981 15.95C23.876 15.95 23.6373 15.8889 23.3819 15.7667C23.1376 15.6446 22.9266 15.5002 22.7489 15.3337C22.5713 15.156 22.4658 14.9894 22.4325 14.834C22.5102 14.7451 22.5491 14.6341 22.5491 14.5008C22.5491 14.3676 22.5379 14.2454 22.5157 14.1344C22.4935 14.0122 22.4769 13.9401 22.4658 13.9179C22.4436 13.8623 22.3658 13.668 22.2326 13.3349C22.1104 12.9906 21.9439 12.5576 21.7329 12.0357C21.533 11.5026 21.3054 10.9141 21.05 10.2701C20.7946 9.626 20.5336 8.97084 20.2671 8.30457C20.0006 7.6272 19.7452 6.97759 19.5009 6.35575C19.2566 5.72279 19.0345 5.15647 18.8346 4.65677C18.6347 4.15707 18.4737 3.76286 18.3516 3.47415C18.2405 3.17433 18.185 3.02442 18.185 3.02442C18.3516 3.00221 18.6125 2.98 18.9679 2.95779C19.3343 2.92448 19.7285 2.92448 20.1505 2.95779C20.5836 2.9911 20.9833 3.07994 21.3498 3.2243C21.7273 3.36866 22.0049 3.60185 22.1826 3.92388C22.227 4.01271 22.2937 4.17928 22.3825 4.42358C22.4824 4.65677 22.5879 4.93438 22.699 5.25641C22.8211 5.56733 22.9377 5.88381 23.0488 6.20584C23.1598 6.52786 23.2542 6.81103 23.3319 7.05532C23.4208 7.28852 23.4818 7.44953 23.5151 7.53837C23.5929 7.74935 23.6928 7.92702 23.815 8.07138C23.9371 8.20463 24.0593 8.28236 24.1814 8.30457C24.3036 8.31568 24.4313 8.27126 24.5645 8.17132C24.7089 8.07138 24.8199 7.93257 24.8976 7.7549C24.931 7.67717 24.9976 7.47174 25.0975 7.13861C25.2086 6.79437 25.3307 6.39461 25.464 5.93933C25.6083 5.47294 25.7416 5.01211 25.8637 4.55683C25.997 4.09044 26.1025 3.68513 26.1802 3.34089C26.2579 2.99666 26.2857 2.78012 26.2635 2.69129ZM31.8667 16.1498C31.3893 16.061 31.0506 15.739 30.8507 15.1838C30.6619 14.6285 30.5675 13.9401 30.5675 13.1183C30.5675 13.0184 30.562 12.7686 30.5509 12.3688C30.5509 11.969 30.5453 11.4749 30.5342 10.8864C30.5342 10.2867 30.5287 9.64266 30.5176 8.95418C30.5176 8.26571 30.512 7.57723 30.5009 6.88876C30.4898 6.20028 30.4787 5.56733 30.4676 4.9899C30.4565 4.40137 30.4454 3.91832 30.4343 3.54077C30.4232 3.16322 30.4121 2.93558 30.401 2.85785C30.5675 2.82454 30.8229 2.81899 31.1672 2.8412C31.5225 2.8523 31.889 2.90782 32.2665 3.00776C32.6552 3.0966 32.9938 3.25206 33.2826 3.47415C33.5713 3.68513 33.7378 3.9794 33.7823 4.35695C33.8045 4.53462 33.8211 4.83999 33.8322 5.27306C33.8433 5.69503 33.8489 6.20028 33.8489 6.78882C33.86 7.36625 33.8655 7.98254 33.8655 8.6377C33.8655 9.29287 33.8655 9.94247 33.8655 10.5865C33.8655 11.2195 33.8655 11.808 33.8655 12.3521C33.8655 12.8851 33.8655 13.3349 33.8655 13.7013C33.8766 14.0567 33.8878 14.2732 33.8989 14.3509C33.9211 14.5841 33.9655 14.7562 34.0321 14.8673C34.0987 14.9672 34.1709 15.0949 34.2486 15.2504C33.971 15.5502 33.6268 15.7945 33.2159 15.9833C32.8051 16.1721 32.3553 16.2276 31.8667 16.1498ZM40.9038 2.65797C41.5589 2.65797 42.1863 2.77457 42.786 3.00776C43.3967 3.22985 43.9075 3.52967 44.3184 3.90722C44.7403 4.28477 44.9902 4.69008 45.0679 5.12315C45.1234 5.41187 45.0846 5.7339 44.9513 6.08924C44.8181 6.43348 44.6071 6.73885 44.3184 7.00535C44.0297 7.26076 43.6799 7.39956 43.269 7.42177C43.1246 7.42177 42.9414 7.40511 42.7193 7.3718C42.4972 7.33849 42.2807 7.27186 42.0697 7.17192C41.8698 7.07198 41.7088 6.92762 41.5867 6.73885C41.7532 6.65001 41.8643 6.55563 41.9198 6.45569C41.9753 6.35575 41.992 6.25581 41.9698 6.15587C41.9254 5.93378 41.7921 5.75055 41.57 5.6062C41.359 5.46184 41.0981 5.373 40.7872 5.33969C40.6095 5.31748 40.4041 5.32303 40.1709 5.35635C39.9377 5.37856 39.7211 5.45629 39.5213 5.58954C39.3325 5.71169 39.1992 5.91712 39.1215 6.20584C39.0771 6.3724 39.0826 6.55563 39.1382 6.75551C39.2048 6.94428 39.3602 7.1275 39.6045 7.30517C39.8488 7.47174 40.2208 7.6161 40.7205 7.73825C41.4867 7.91592 42.1974 8.11024 42.8526 8.32123C43.5188 8.53221 44.1018 8.79317 44.6015 9.10409C45.1012 9.41501 45.4843 9.80367 45.7508 10.2701C46.0284 10.7253 46.1562 11.2972 46.1339 11.9857C46.1228 12.441 46.0007 12.9185 45.7675 13.4182C45.5343 13.9179 45.1956 14.3842 44.7514 14.8173C44.3073 15.2393 43.7631 15.5835 43.1191 15.85C42.475 16.1165 41.7421 16.2498 40.9204 16.2498C40.3985 16.2498 39.8599 16.2054 39.3047 16.1165C38.7495 16.0277 38.222 15.8889 37.7223 15.7001C37.2337 15.5113 36.8007 15.2615 36.4231 14.9506C36.09 14.6619 35.8512 14.301 35.7069 13.8679C35.5736 13.4348 35.5459 13.0017 35.6236 12.5687C35.7013 12.1245 35.8957 11.7469 36.2066 11.436C36.5286 11.1251 36.9728 10.953 37.5391 10.9197C37.4281 11.2528 37.4891 11.5804 37.7223 11.9024C37.9666 12.2133 38.3275 12.4798 38.805 12.7019C39.2825 12.9129 39.8044 13.0406 40.3707 13.085C40.9593 13.1294 41.4701 13.1072 41.9032 13.0184C42.3473 12.9296 42.5916 12.7463 42.636 12.4687C42.6916 12.1356 42.6249 11.8691 42.4362 11.6692C42.2474 11.4693 41.9864 11.3194 41.6533 11.2195C41.3202 11.1084 40.9593 11.0196 40.5706 10.953C40.182 10.8752 39.8211 10.7975 39.4879 10.7198C39.0438 10.5976 38.594 10.4422 38.1388 10.2534C37.6946 10.0535 37.2837 9.80367 36.9062 9.50385C36.5397 9.20403 36.2399 8.83758 36.0067 8.40451C35.7735 7.97144 35.6514 7.46619 35.6403 6.88876C35.6292 6.21139 35.768 5.61175 36.0567 5.08984C36.3454 4.55683 36.7396 4.11265 37.2393 3.75731C37.739 3.39086 38.3053 3.11881 38.9383 2.94113C39.5823 2.75236 40.2375 2.65797 40.9038 2.65797ZM57.5954 12.8685C57.7287 13.1905 57.9174 13.5014 58.1617 13.8013C58.406 14.09 58.617 14.3065 58.7947 14.4509C58.5282 15.0061 58.2006 15.4114 57.8119 15.6668C57.4899 15.8778 57.1457 15.9999 56.7792 16.0333C56.5793 16.0555 56.3517 16.0388 56.0963 15.9833C55.8409 15.9278 55.5744 15.7723 55.2968 15.5169C55.0303 15.2504 54.7638 14.8284 54.4973 14.251C54.4195 14.0622 54.2474 13.929 53.9809 13.8512C53.7144 13.7735 53.4312 13.7291 53.1314 13.718C52.8316 13.6958 52.5873 13.6847 52.3985 13.6847C52.2098 13.6847 51.9766 13.6902 51.6989 13.7013C51.4324 13.7124 51.1881 13.7568 50.9661 13.8346C50.744 13.9123 50.6107 14.0511 50.5663 14.251C50.5219 14.4287 50.5163 14.6119 50.5496 14.8007C50.583 14.9894 50.6551 15.1116 50.7662 15.1671C50.5774 15.3448 50.3886 15.5002 50.1999 15.6335C50.0222 15.7667 49.839 15.8722 49.6502 15.95C49.417 16.0499 49.1727 16.0999 48.9173 16.0999C48.673 16.0999 48.3954 16.0444 48.0845 15.9333C47.9401 15.8778 47.7902 15.7779 47.6347 15.6335C47.4793 15.4891 47.3738 15.2893 47.3183 15.0339C47.2627 14.7785 47.3071 14.4564 47.4515 14.0678C47.4626 14.0345 47.5181 13.8568 47.6181 13.5348C47.718 13.2127 47.8457 12.7908 48.0012 12.2689C48.1677 11.7358 48.3454 11.1473 48.5342 10.5032C48.7341 9.85919 48.9339 9.19848 49.1338 8.52111C49.3448 7.83263 49.5447 7.17192 49.7335 6.53897C49.9333 5.90602 50.111 5.33414 50.2665 4.82334C50.4219 4.31253 50.5441 3.90722 50.6329 3.6074C50.7218 3.30758 50.7662 3.15767 50.7662 3.15767C50.8661 3.10215 51.0493 3.03552 51.3158 2.95779C51.5935 2.86896 51.8877 2.81899 52.1986 2.80788C52.5429 2.78567 52.876 2.83009 53.198 2.94113C53.5312 3.05218 53.7866 3.27427 53.9643 3.6074C54.042 3.74065 54.1586 3.99606 54.314 4.37361C54.4695 4.75116 54.6527 5.20644 54.8637 5.73945C55.0747 6.27246 55.2968 6.84434 55.53 7.45508C55.7632 8.05472 55.9908 8.65436 56.2129 9.254C56.4461 9.84253 56.6571 10.3922 56.8458 10.903C57.0346 11.4138 57.1956 11.8469 57.3289 12.2022C57.4621 12.5465 57.551 12.7686 57.5954 12.8685ZM52.3486 10.7198C52.6373 10.6976 52.8038 10.6143 52.8483 10.4699C52.9038 10.3256 52.9371 10.159 52.9482 9.97024C52.9482 9.84809 52.926 9.69818 52.8816 9.52051C52.8483 9.34284 52.7927 9.18737 52.715 9.05412C52.6484 8.90976 52.5595 8.83758 52.4485 8.83758C52.293 8.83758 52.1209 8.94863 51.9321 9.17072C51.7545 9.3817 51.6545 9.59824 51.6323 9.82033C51.599 10.0313 51.6157 10.2367 51.6823 10.4366C51.76 10.6365 51.9821 10.7309 52.3486 10.7198Z" fill="#3A3838"/>
</svg>
