<svg width="13" height="16" viewBox="0 0 13 16" fill="none" xmlns="http://www.w3.org/2000/svg">
<path d="M5.11698 10.5819C4.69618 12.7851 4.18338 14.8971 2.66258 16.0003C2.19378 12.6707 3.35138 10.1707 3.88978 7.51634C2.97218 5.97234 4.00018 2.86674 5.93378 3.63234C8.31378 4.57314 3.87298 9.36994 6.85378 9.96994C9.96658 10.5947 11.237 4.56994 9.30658 2.61074C6.51858 -0.219658 1.18978 2.54434 1.84578 6.59634C2.00498 7.58674 3.02818 7.88674 2.25458 9.25394C0.469785 8.85874 -0.0630152 7.45074 0.00578478 5.57394C0.116185 2.50194 2.76498 0.352342 5.42258 0.0539423C8.78338 -0.322858 11.9378 1.28834 12.3738 4.44914C12.8642 8.01794 10.857 11.8835 7.26258 11.6051C6.28818 11.5291 5.88018 11.0459 5.11698 10.5819Z" fill="#151819"/>
</svg>
