<svg width="14" height="14" viewBox="0 0 14 14" fill="none" xmlns="http://www.w3.org/2000/svg">
<path fill-rule="evenodd" clip-rule="evenodd" d="M4.95267 4.646H7.42867V5.87933C7.78533 5.17 8.7 4.53267 10.074 4.53267C12.708 4.53267 13.3333 5.94467 13.3333 8.53533V13.3333H10.6667V9.12533C10.6667 7.65 10.31 6.818 9.402 6.818C8.14267 6.818 7.61933 7.71467 7.61933 9.12467V13.3333H4.95267V4.646ZM0.38 13.22H3.04667V4.53267H0.38V13.22ZM3.42867 1.7C3.42877 1.92352 3.38444 2.14482 3.29826 2.35106C3.21208 2.55729 3.08577 2.74434 2.92667 2.90133C2.60427 3.22175 2.16787 3.4011 1.71333 3.4C1.25959 3.3997 0.824207 3.2208 0.501333 2.902C0.342808 2.74447 0.216924 2.55722 0.130896 2.35095C0.0448676 2.14469 0.000386088 1.92348 0 1.7C0 1.24867 0.18 0.816667 0.502 0.498C0.82459 0.178772 1.26016 -0.000199474 1.714 1.66843e-07C2.16867 1.66843e-07 2.60467 0.179333 2.92667 0.498C3.248 0.816667 3.42867 1.24867 3.42867 1.7Z" fill="#151819"/>
</svg>
