<svg width="27" height="27" viewBox="0 0 27 27" fill="none" xmlns="http://www.w3.org/2000/svg">
<path d="M13.3333 26.6667C5.96953 26.6667 0 20.6971 0 13.3333C0 5.96953 5.96953 0 13.3333 0C20.6971 0 26.6667 5.96953 26.6667 13.3333C26.6667 20.6971 20.6971 26.6667 13.3333 26.6667ZM13.3333 24C19.2244 24 24 19.2244 24 13.3333C24 7.44229 19.2244 2.66667 13.3333 2.66667C7.44229 2.66667 2.66667 7.44229 2.66667 13.3333C2.66667 19.2244 7.44229 24 13.3333 24ZM11.4959 8.55279L18.0011 12.8896C18.2461 13.0529 18.3124 13.3841 18.1489 13.6292C18.1099 13.6877 18.0596 13.738 18.0011 13.7771L11.4959 18.1139C11.2508 18.2773 10.9196 18.2111 10.7563 17.966C10.6979 17.8784 10.6667 17.7755 10.6667 17.6701V8.99655C10.6667 8.70199 10.9055 8.46321 11.2 8.46321C11.3053 8.46321 11.4083 8.49437 11.4959 8.55279Z" fill="#151819"/>
</svg>
