<svg width="72" height="18" viewBox="0 0 72 18" fill="none" xmlns="http://www.w3.org/2000/svg">
<path d="M9.40022e-05 17.6456V1.4191e-05H10.2752V17.6456H9.40022e-05ZM7.33943 14.3195H9.93162V12.5393H8.7136L7.33943 10.0096C7.92241 9.78058 8.39088 9.43704 8.74483 8.97898C9.09878 8.51052 9.27576 7.93274 9.27576 7.24565C9.27576 6.22543 8.93742 5.46027 8.26075 4.95016C7.58407 4.42964 6.6159 4.16938 5.35624 4.16938H0.765258V5.94956H1.85835V12.5393H0.765258V14.3195H5.04393V12.5393H3.95084V10.4469H5.32501L7.33943 14.3195ZM7.02711 7.2925C7.02711 7.77138 6.88137 8.14095 6.58988 8.40121C6.29839 8.66147 5.75184 8.7916 4.95024 8.7916H3.95084V5.94956H4.98147C5.74143 5.94956 6.27236 6.04846 6.57426 6.24625C6.87616 6.43364 7.02711 6.78239 7.02711 7.2925ZM9.95809 17.6456V1.4191e-05H21.3887V17.6456H9.95809ZM20.8578 9.22883C20.8578 7.80261 20.3997 6.57939 19.4836 5.55917C18.5779 4.52854 17.313 4.01322 15.689 4.01322C14.0962 4.01322 12.8314 4.51813 11.8944 5.52794C10.9575 6.53775 10.489 7.78179 10.489 9.26007C10.489 10.6759 10.9315 11.8991 11.8163 12.9297C12.7012 13.9604 13.9713 14.4757 15.6266 14.4757C17.2714 14.4757 18.5519 13.9604 19.468 12.9297C20.3945 11.8991 20.8578 10.6655 20.8578 9.22883ZM18.5935 9.2913C18.5935 10.2803 18.3645 11.0871 17.9064 11.7117C17.4484 12.3259 16.7248 12.633 15.7359 12.633C14.6636 12.633 13.8984 12.2947 13.4404 11.618C12.9823 10.9413 12.7533 10.1397 12.7533 9.21322C12.7533 8.25546 12.9875 7.45907 13.456 6.82403C13.9245 6.17859 14.6636 5.85586 15.6734 5.85586C16.6207 5.85586 17.3443 6.15777 17.844 6.76157C18.3437 7.36537 18.5935 8.20861 18.5935 9.2913ZM21.0751 17.6456V1.4191e-05H32.5057V17.6456H21.0751ZM31.9747 9.22883C31.9747 7.80261 31.5167 6.57939 30.6006 5.55917C29.6949 4.52854 28.43 4.01322 26.806 4.01322C25.2132 4.01322 23.9483 4.51813 23.0114 5.52794C22.0745 6.53775 21.606 7.78179 21.606 9.26007C21.606 10.6759 22.0484 11.8991 22.9333 12.9297C23.8182 13.9604 25.0883 14.4757 26.7435 14.4757C28.3884 14.4757 29.6688 13.9604 30.585 12.9297C31.5115 11.8991 31.9747 10.6655 31.9747 9.22883ZM29.7105 9.2913C29.7105 10.2803 29.4815 11.0871 29.0234 11.7117C28.5653 12.3259 27.8418 12.633 26.8528 12.633C25.7806 12.633 25.0154 12.2947 24.5573 11.618C24.0993 10.9413 23.8702 10.1397 23.8702 9.21322C23.8702 8.25546 24.1045 7.45907 24.5729 6.82403C25.0414 6.17859 25.7806 5.85586 26.7904 5.85586C27.7377 5.85586 28.4612 6.15777 28.9609 6.76157C29.4606 7.36537 29.7105 8.20861 29.7105 9.2913ZM32.192 17.6456V1.4191e-05H42.6857V17.6456H32.192ZM40.3902 7.76097L42.1704 7.60481L41.8581 4.16938H32.9884L32.6761 7.60481L34.4563 7.76097L34.7686 5.94956H36.377V12.5393H34.8154V14.3195H40.1247V12.5393H38.4695V5.94956H40.0779L40.3902 7.76097ZM42.3007 17.6456V1.4191e-05H45.5487V17.6456H42.3007ZM45.1542 17.6456V1.4191e-05H54.8202V17.6456H45.1542ZM54.4299 7.47989C54.4299 6.45967 54.1019 5.65286 53.4461 5.05947C52.7902 4.46608 51.8325 4.16938 50.5728 4.16938H45.9193V5.94956H47.0124V12.5393H45.9193V14.3195H50.6665V12.5393H49.1049V10.9153H50.6665C51.6659 10.9153 52.5404 10.6342 53.2899 10.0721C54.0499 9.4995 54.4299 8.63544 54.4299 7.47989ZM52.1812 7.51112C52.1812 8.00041 52.0407 8.396 51.7596 8.6979C51.4889 8.9998 50.9944 9.15076 50.2761 9.15076H49.1049V5.94956H50.3073C51.0048 5.94956 51.4889 6.08489 51.7596 6.35556C52.0407 6.62623 52.1812 7.01142 52.1812 7.51112ZM54.5022 1.4191e-05H65.0271V12.5393H64.0589L60.4049 4.16938H56.9226V5.94956H58.328L55.4235 12.5393H54.5022V1.4191e-05ZM59.7959 7.15196L60.8577 10.0096H58.5622L59.7022 7.15196H59.7959ZM65.0271 17.6456H54.5022V14.3195H58.4998V12.5393H57.5472L57.9689 11.5087H61.4199L61.7947 12.5393H60.9827V14.3195H65.0271V17.6456ZM64.7194 17.6456V1.4191e-05H70.544V17.6456H64.7194ZM65.4846 14.3195H69.7633V12.5393H68.6702V5.94956H69.7633V4.16938H65.4846V5.94956H66.5777V12.5393H65.4846V14.3195Z" fill="#3A3838"/>
</svg>
